<?xml version="1.0" encoding="UTF-8"?>
<svg version="1.1" xmlns="http://www.w3.org/2000/svg" width="500" height="500">
<path d="M0 0 C165 0 330 0 500 0 C500 164.67 500 329.34 500 499 C335 499 170 499 0 499 C0 334.33 0 169.66 0 0 Z " fill="#FEFEFE" transform="translate(0,1)"/>
<path d="M0 0 C3.05185208 2.83427629 5.13081497 5.61557061 7.1796875 9.234375 C8.06720703 10.78898437 8.06720703 10.78898437 8.97265625 12.375 C9.91431641 14.045625 9.91431641 14.045625 10.875 15.75 C11.54221557 16.92230399 12.21019675 18.09417254 12.87890625 19.265625 C13.90875122 21.06983807 14.93816511 22.87427965 15.965271 24.68005371 C19.26492444 30.47991869 22.62760724 36.24216223 26 42 C30.8618925 50.31700966 35.69141461 58.65206274 40.5 67 C47.62086408 79.36022518 54.80183378 91.68467327 62 104 C69.83657983 117.40758718 77.64278608 130.83159279 85.39428711 144.28857422 C89.57327594 151.53921986 93.7773134 158.77472586 98 166 C103.49945536 175.4099033 108.95449196 184.84470563 114.39453125 194.2890625 C118.57349128 201.5395149 122.77740506 208.77488269 127 216 C131.86103001 224.31751862 136.69131003 232.65211422 141.5 241 C146.52414751 249.71856628 151.56144777 258.42925036 156.625 267.125 C157.19283203 268.10210937 157.76066406 269.07921875 158.34570312 270.0859375 C161.17552995 274.93900577 164.05355291 279.73580914 167.13037109 284.43701172 C168 286 168 286 168 288 C57.78 288 -52.44 288 -166 288 C-164.4014996 284.003749 -162.71467183 280.51895987 -160.62890625 276.78125 C-160.30591049 276.20088989 -159.98291473 275.62052979 -159.65013123 275.02258301 C-158.96988477 273.80155257 -158.28822432 272.58130891 -157.60522461 271.36181641 C-156.56652074 269.50717915 -155.53189878 267.65031428 -154.49804688 265.79296875 C-152.67466864 262.52329239 -150.84954453 259.25498409 -149 256 C-148.67263949 255.12621106 -148.34527899 254.25242212 -148.00799847 253.35215473 C-146 251 -146 251 -144.09280932 250.54449785 C-141.44527474 250.3645884 -138.83975676 250.3584752 -136.18623352 250.39872742 C-135.16686571 250.39445529 -134.1474979 250.39018317 -133.09724015 250.38578159 C-129.66505384 250.3775142 -126.23407657 250.40509969 -122.80200195 250.43237305 C-120.34838897 250.4337827 -117.89477387 250.43299316 -115.44116211 250.43016052 C-110.15029018 250.42902017 -104.85979806 250.44324511 -99.56902504 250.47134972 C-91.91949198 250.51195764 -84.27010806 250.52500411 -76.62047889 250.53128967 C-64.21003625 250.54223716 -51.79975778 250.57552354 -39.3894043 250.62280273 C-27.33277204 250.66868666 -15.27618434 250.70408423 -3.21948242 250.7253418 C-2.47650869 250.72665541 -1.73353497 250.72796903 -0.96804688 250.72932246 C2.75917468 250.73584757 6.48639655 250.74216613 10.21361864 250.74838197 C41.14253181 250.80022911 72.07124099 250.88867785 103 251 C100.91383834 247.30496996 98.82697553 243.61033638 96.73999023 239.91577148 C96.15212486 238.87451866 95.56425949 237.83326584 94.95858002 236.7604599 C91.04353505 229.83073846 87.09364659 222.92542251 83.0625 216.0625 C81.88539555 214.05079361 80.70831285 212.03907448 79.53125 210.02734375 C78.94730469 209.0307373 78.36335937 208.03413086 77.76171875 207.00732422 C74.85726309 202.04930249 71.95909225 197.08761895 69.0625 192.125 C68.48765869 191.14023682 67.91281738 190.15547363 67.32055664 189.14086914 C62.38788207 180.68220757 57.49600718 172.20029529 52.60791016 163.71582031 C46.11500122 152.4520275 39.56057444 141.22447236 33 130 C24.92100998 116.17767376 16.87106262 102.33958828 8.88500977 88.46337891 C8.29002686 87.43003418 7.69504395 86.39668945 7.08203125 85.33203125 C6.55843018 84.42171143 6.0348291 83.5113916 5.49536133 82.57348633 C4.02008397 80.0345641 2.51700274 77.51417354 1 75 C-5.67731185 85.53863276 -11.85387076 96.36145206 -18.0703125 107.17578125 C-21.68729296 113.46598905 -25.3372986 119.73633279 -29 126 C-33.86124858 134.31738902 -38.69141192 142.65205807 -43.5 151 C-50.03124263 162.3367744 -56.61155658 173.64415427 -63.21337891 184.93994141 C-65.11780435 188.20177094 -67.01827439 191.46588173 -68.91796875 194.73046875 C-69.55919678 195.83181152 -70.2004248 196.9331543 -70.86108398 198.06787109 C-72.09435557 200.18628643 -73.32696994 202.30508454 -74.55883789 204.42431641 C-75.11176514 205.3735498 -75.66469238 206.3227832 -76.234375 207.30078125 C-76.72131836 208.13778564 -77.20826172 208.97479004 -77.70996094 209.8371582 C-78.75530981 211.58975957 -79.86803563 213.30205345 -81 215 C-82.87295532 215.36076355 -82.87295532 215.36076355 -85.17431641 215.34057617 C-86.46542831 215.34023628 -86.46542831 215.34023628 -87.78262329 215.33988953 C-89.1779982 215.31666374 -89.1779982 215.31666374 -90.6015625 215.29296875 C-91.55316254 215.28872391 -92.50476257 215.28447906 -93.48519897 215.28010559 C-96.53208414 215.26327896 -99.57831391 215.22561954 -102.625 215.1875 C-104.68749046 215.17245831 -106.74999127 215.15876901 -108.8125 215.14648438 C-113.8752535 215.11336239 -118.93751554 215.06155284 -124 215 C-122.68739967 211.52046925 -121.15960266 208.37638667 -119.26953125 205.17578125 C-118.72167969 204.24314453 -118.17382812 203.31050781 -117.609375 202.34960938 C-117.01640625 201.34736328 -116.4234375 200.34511719 -115.8125 199.3125 C-114.53715081 197.14228521 -113.26243249 194.97169958 -111.98828125 192.80078125 C-111.32908691 191.67881348 -110.66989258 190.5568457 -109.99072266 189.40087891 C-106.79981796 183.94965221 -103.65019544 178.47481958 -100.5 173 C-95.69190352 164.65177414 -90.86094153 156.31756535 -86 148 C-78.61585107 135.36256546 -71.30509865 122.68324702 -64 110 C-56.12419276 96.3258782 -48.23144154 82.66263026 -40.26928711 69.03857422 C-35.98755048 61.70687461 -31.73788887 54.35711942 -27.5 47 C-22.49971593 38.32129364 -17.48232474 29.65290068 -12.4375 21 C-11.59832031 19.55947266 -11.59832031 19.55947266 -10.7421875 18.08984375 C-7.20656707 12.0324314 -3.62254651 6.00582222 0 0 Z " fill="#235479" transform="translate(248,87)"/>
<path d="M0 0 C3.5578125 -0.0928125 3.5578125 -0.0928125 7.1875 -0.1875 C8.29387817 -0.22846802 8.29387817 -0.22846802 9.42260742 -0.27026367 C13.85764525 -0.32596367 16.44504852 0.37953025 20 3 C20.8971875 3.61875 20.8971875 3.61875 21.8125 4.25 C23.84316084 7.24255282 23.46861025 9.48542309 23 13 C21.87159757 14.93729307 20.63019561 16.60668957 19.19140625 18.32421875 C17.85959761 20.19748402 17.42495724 21.75798421 17 24 C15.02 24 13.04 24 11 24 C11 22.68 11 21.36 11 20 C9.02 20 7.04 20 5 20 C5 20.99 5 21.98 5 23 C3.35 23 1.7 23 0 23 C0 15.41 0 7.82 0 0 Z " fill="#2E5D7F" transform="translate(206,311)"/>
<path d="M0 0 C2.64 0 5.28 0 8 0 C10.15537041 5.2852434 12.25359981 10.58999949 14.25 15.9375 C14.75273437 17.28134766 14.75273437 17.28134766 15.265625 18.65234375 C16 21 16 21 16 24 C14.02 24 12.04 24 10 24 C10 23.01 10 22.02 10 21 C6.04 21 2.08 21 -2 21 C-2 21.99 -2 22.98 -2 24 C-3.98 24 -5.96 24 -8 24 C-7.49535378 18.95353784 -6.32402205 15.46927317 -4 11 C-3.16134407 8.66600471 -2.39638222 6.3175954 -1.6484375 3.953125 C-1 2 -1 2 0 0 Z " fill="#3B6787" transform="translate(187,311)"/>
<path d="M0 0 C1.98 0 3.96 0 6 0 C8.1171875 2.625 8.1171875 2.625 9.875 6 C10.47054687 7.11375 11.06609375 8.2275 11.6796875 9.375 C12.33324219 10.674375 12.33324219 10.674375 13 12 C13.33 8.37 13.66 4.74 14 1 C15.65 1 17.3 1 19 1 C19 8.59 19 16.18 19 24 C17.35 24 15.7 24 14 24 C11.98046875 21.8125 11.98046875 21.8125 10.1875 19 C9.58292969 18.071875 8.97835937 17.14375 8.35546875 16.1875 C7.68451172 15.1046875 7.68451172 15.1046875 7 14 C6.67 17.63 6.34 21.26 6 25 C4.02 25 2.04 25 0 25 C0 16.75 0 8.5 0 0 Z " fill="#356283" transform="translate(136,310)"/>
<path d="M0 0 C2.64 0 5.28 0 8 0 C10.66666667 8 13.33333333 16 16 24 C14.02 24 12.04 24 10 24 C9.67 23.01 9.34 22.02 9 21 C5.37 21 1.74 21 -2 21 C-2 21.66 -2 22.32 -2 23 C-3.98 23 -5.96 23 -8 23 C-7.31028645 20.93085934 -6.62038769 18.86178027 -5.9296875 16.79296875 C-5.26515934 14.79659214 -4.60408699 12.79906387 -3.9453125 10.80078125 C-3.59210938 9.73214844 -3.23890625 8.66351563 -2.875 7.5625 C-2.54242188 6.55316406 -2.20984375 5.54382813 -1.8671875 4.50390625 C-1 2 -1 2 0 0 Z " fill="#346183" transform="translate(118,311)"/>
<path d="M0 0 C7.26 0 14.52 0 22 0 C22 1.98 22 3.96 22 6 C19.36 6 16.72 6 14 6 C14 12.27 14 18.54 14 25 C12.02 25 10.04 25 8 25 C8 18.73 8 12.46 8 6 C5.36 6 2.72 6 0 6 C0 4.02 0 2.04 0 0 Z " fill="#466F8E" transform="translate(159,310)"/>
<path d="M0 0 C6.93 0 13.86 0 21 0 C21 1.32 21 2.64 21 4 C18.36 4 15.72 4 13 4 C13 10.27 13 16.54 13 23 C11.35 23 9.7 23 8 23 C8 16.73 8 10.46 8 4 C5.36 4 2.72 4 0 4 C0 2.68 0 1.36 0 0 Z " fill="#28577B" transform="translate(232,311)"/>
<path d="M0 0 C1.423125 -0.061875 2.84625 -0.12375 4.3125 -0.1875 C5.51326172 -0.23970703 5.51326172 -0.23970703 6.73828125 -0.29296875 C9 0 9 0 10.76953125 1.32421875 C12.6691714 3.91134772 12.38880875 5.88952999 12 9 C10.76953125 10.67578125 10.76953125 10.67578125 9 12 C6.73828125 12.29296875 6.73828125 12.29296875 4.3125 12.1875 C2.889375 12.125625 1.46625 12.06375 0 12 C0 8.04 0 4.08 0 0 Z " fill="#E3E9ED" transform="translate(211,315)"/>
<path d="M0 0 C0.66 0 1.32 0 2 0 C3.49821059 3.37097383 4 5.20442119 4 9 C2.02 9 0.04 9 -2 9 C-1.34 6.03 -0.68 3.06 0 0 Z " fill="#CDD8E0" transform="translate(190,318)"/>
<path d="M0 0 C2 1 2 1 3.125 3.375 C4 6 4 6 4 9 C1.69 9 -0.62 9 -3 9 C-2.30058404 5.85262818 -1.23921302 2.97411124 0 0 Z " fill="#CAD6DE" transform="translate(121,318)"/>
</svg>
